# xmcd CD database file
#
# Track frame offsets:
#	183
#	18558
#	39183
#	57193
#	73308
#	90558
#	106008
#	119133
#	134845
#	156408
#	172550
#	188760
#	202875
#	223008
#
# Disc length: 3106 seconds
#
# Revision: 0
# Processed by: cddbd v1.5.2PL0 Copyright (c) Steve Scherf et al.
# Submitted via: CDex 1.70beta2
#
DISCID=c40c200e
DTITLE=Di Bari , Nicola - Innamorati Noi - Innamorati Noi
DYEAR=1992
DGENRE=Musica Italiana
TTITLE0=E Ti Amavo (G.Calabrese-Ghiglino-Reverberi)
TTITLE1=Anna Perchè (Lo Vecchio-Ghigliono-Di Bari-Reverberi)
TTITLE2=La Più Bella Del Mondo (Marino Marini)
TTITLE3=Amore Ritorna A Casa (Di Bari-Russell)
TTITLE4=Lei, Mia (Capelli-Toscani)
TTITLE5=Innamorati Noi (M.Balducci)
TTITLE6=Voglio Amarti Così (A.Lara)
TTITLE7=Anche Senza Di Te (Lo Vecchio-Grieco)
TTITLE8=Io Che Amo Solo Te (S.Endrigo)
TTITLE9=L'Amore E' (Lo Vecchio-Shapiro)
TTITLE10=Amico Caro (Lo Vecchio-Carucci)
TTITLE11=Il Cielo...Il Mare...E Tu (Forlai-Di Bari)
TTITLE12=Se Chiudo Gli Occhi (Lo Vecchio-Di Bari)
TTITLE13=La Via Degli Amanti (N.Di Bari)
EXTD=YEAR: 1992
EXTT0=
EXTT1=
EXTT2=
EXTT3=
EXTT4=
EXTT5=
EXTT6=
EXTT7=
EXTT8=
EXTT9=
EXTT10=
EXTT11=
EXTT12=
EXTT13=
PLAYORDER=
